<svg xmlns="http://www.w3.org/2000/svg" xmlns:xlink="http://www.w3.org/1999/xlink" width="148" height="48" viewBox="0 0 148 48">
  <defs>
   <linearGradient id="linear-gradient" gradientTransform="rotate(90)">
  <stop offset="0%" stop-color="#10509f" />
  <stop offset="50%" stop-color="#cf6dd8" />
  <stop offset="100%" stop-color="#ec82bc" />
</linearGradient>
  </defs>
  <g id="logo_-_header" data-name="logo - header" transform="translate(-158 -36)">
    <text id="Jessy" transform="translate(208 76)" fill="#fff" font-size="33" font-family="Raleway-SemiBold, Raleway" font-weight="600"><tspan x="0" y="0">mobin</tspan></text>
    <path id="Path_85" data-name="Path 85" d="M751.579,444.411h13.506v16.174q0,.5-.032,1-.037.613-.121,1.211-.082.614-.213,1.21a16.166,16.166,0,1,1-19.231-19.229v-3.033c0-.24,0-.478.011-.711a19.845,19.845,0,1,0,23.229,20.529c.008-.159.014-.317.018-.475,0-.086,0-.171,0-.258s0-.163,0-.245h0V440.742H751.61q-.031.5-.032,1Z" transform="translate(638.426 -693.071) rotate(90)" fill="#ec82bc"/>
  </g>
</svg>
